<svg width="121" height="120" viewBox="0 0 121 120" fill="none" xmlns="http://www.w3.org/2000/svg">
<path fill-rule="evenodd" clip-rule="evenodd" d="M95.5 20C99.3261 19.9998 103.008 21.4616 105.791 24.0864C108.575 26.7112 110.251 30.3005 110.475 34.12L110.5 35V85C110.5 88.8261 109.038 92.5076 106.414 95.2913C103.789 98.075 100.199 99.7505 96.38 99.975L95.5 100H25.5C21.6739 100 17.9924 98.5384 15.2087 95.9136C12.425 93.2888 10.7495 89.6995 10.525 85.88L10.5 85V35C10.4998 31.1739 11.9616 27.4924 14.5864 24.7087C17.2112 21.925 20.8005 20.2495 24.62 20.025L25.5 20H95.5ZM100.5 50H20.5V85C20.5002 86.2247 20.9498 87.4067 21.7636 88.3219C22.5774 89.237 23.6987 89.8217 24.915 89.965L25.5 90H95.5C96.7247 89.9998 97.9067 89.5502 98.8219 88.7364C99.737 87.9226 100.322 86.8013 100.465 85.585L100.5 85V50ZM74.035 57.32L83.175 66.465C84.1124 67.4026 84.6389 68.6742 84.6389 70C84.6389 71.3258 84.1124 72.5974 83.175 73.535L74.035 82.675C73.5738 83.1525 73.022 83.5335 72.412 83.7955C71.802 84.0576 71.1459 84.1955 70.482 84.2012C69.8181 84.207 69.1597 84.0805 68.5452 83.8291C67.9307 83.5777 67.3725 83.2064 66.903 82.737C66.4336 82.2675 66.0623 81.7093 65.8109 81.0948C65.5595 80.4803 65.433 79.8219 65.4387 79.158C65.4445 78.4941 65.5824 77.838 65.8445 77.228C66.1065 76.618 66.4874 76.0662 66.965 75.605L67.565 75H45.5C44.1739 75 42.9021 74.4732 41.9645 73.5355C41.0268 72.5979 40.5 71.3261 40.5 70C40.5 68.6739 41.0268 67.4021 41.9645 66.4645C42.9021 65.5268 44.1739 65 45.5 65H67.57L66.965 64.395C66.0268 63.4575 65.4995 62.1856 65.499 60.8593C65.4985 59.5329 66.025 58.2607 66.9625 57.3225C67.9 56.3843 69.1719 55.857 70.4982 55.8565C71.8246 55.856 73.0968 56.3825 74.035 57.32ZM95.5 30H25.5C24.1739 30 22.9021 30.5268 21.9645 31.4645C21.0268 32.4021 20.5 33.6739 20.5 35V40H100.5V35C100.5 33.6739 99.9732 32.4021 99.0355 31.4645C98.0979 30.5268 96.8261 30 95.5 30Z" fill="#08AC9F"/>
</svg>
