<svg width="231" height="46" viewBox="0 0 231 46" fill="none" xmlns="http://www.w3.org/2000/svg">
<circle cx="22.4427" cy="22.8952" r="22.4111" fill="#CF1928"/>
<circle cx="48.0553" cy="22.8952" r="22.4111" fill="#FFD400" fill-opacity="0.7"/>
<g clip-path="url(#clip0_15_4163)">
<path d="M113.971 15.6923L105.592 30.1726H100.111L96 18.596C95.7365 17.87 95.5257 17.6408 94.7879 17.3351C93.1642 16.7686 91.4458 16.3576 89.6759 16.1125L89.7813 15.6923H98.5823C99.772 15.6962 100.779 16.3292 100.954 17.1823L103.115 25.5496L108.49 15.6923H113.971ZM135.42 25.435C135.42 21.6143 128.148 21.3851 128.2 19.704C128.2 19.1691 128.885 18.6342 130.414 18.4813C132.167 18.3627 133.932 18.5869 135.526 19.1309L136.422 16.0743C134.874 15.6436 133.231 15.4234 131.573 15.4248C126.461 15.4248 122.877 17.4116 122.825 20.2007C122.772 22.302 125.407 23.4482 127.357 24.1359C129.307 24.8237 130.045 25.3204 130.045 25.9317C130.045 26.8868 128.411 27.3453 126.935 27.3453C125.081 27.3825 123.246 27.0663 121.613 26.4284L120.664 29.5995C122.489 30.1305 124.442 30.3904 126.408 30.3636C131.837 30.4019 135.368 28.4533 135.42 25.435ZM148.912 30.1726H153.708L149.544 15.6923H145.117C144.146 15.6838 143.267 16.1087 142.904 16.762L135.104 30.1726H140.532L141.586 27.9948H148.227L148.912 30.1726ZM143.115 25.0529L145.855 19.6276L147.436 25.0529H143.115ZM121.349 15.6923L117.08 30.1726H111.916L116.184 15.6923H121.349Z" fill="#1A1F71"/>
</g>
<path fill-rule="evenodd" clip-rule="evenodd" d="M221.485 14.0172C221.08 14.0138 220.682 14.1332 220.336 14.3619C219.991 14.5905 219.712 14.9191 219.532 15.3102L215.946 24.1712L214.65 15.3102C214.602 14.9275 214.418 14.5795 214.138 14.3387C213.858 14.0978 213.502 13.9827 213.145 14.0172H208.599L212.489 28.7396C212.545 29.0469 212.545 29.3632 212.489 29.6705C212.371 30.2803 212.068 30.8303 211.627 31.2333C211.186 31.6362 210.633 31.8689 210.055 31.8944H207.542C206.886 31.8944 206.47 32.3254 206.261 33.308L205.685 36.9627H210.183C211.629 36.914 213.036 36.4443 214.253 35.6034C215.471 34.7626 216.454 33.5821 217.099 32.1875L226.095 14.0172H221.485Z" fill="#323E48"/>
<path fill-rule="evenodd" clip-rule="evenodd" d="M177.303 9.62109C178.648 9.62109 179.304 10.19 179.064 11.6553L178.68 14.0171H181.769L181.081 18.1718H177.992L177.159 23.3436C176.855 25.0675 178.504 25.3778 179.448 25.3778H179.912L179.16 29.9634C178.92 29.9634 178.68 29.9634 178.168 29.9634C175.83 29.9634 171.396 29.2911 172.261 23.9642L173.221 18.1201H170.964L171.652 13.9654H173.878L174.598 9.62109H177.303Z" fill="#323E48"/>
<path fill-rule="evenodd" clip-rule="evenodd" d="M203.332 14.2756L202.548 19.1199C203.121 19.436 203.586 19.9421 203.872 20.5638C204.159 21.1854 204.253 21.8897 204.14 22.573C204.027 23.2563 203.713 23.8826 203.245 24.3595C202.777 24.8365 202.179 25.139 201.539 25.2226L200.755 30.0668H201.171C202.968 30.0654 204.704 29.3686 206.064 28.1035C207.423 26.8385 208.315 25.0894 208.577 23.1752C208.839 21.261 208.453 19.3091 207.491 17.6755C206.528 16.0418 205.052 14.8352 203.332 14.2756Z" fill="#08AC9F"/>
<path fill-rule="evenodd" clip-rule="evenodd" d="M199.73 24.8259C199.157 24.5108 198.693 24.0062 198.405 23.3859C198.118 22.7657 198.023 22.0625 198.134 21.3797C198.245 20.6969 198.556 20.0705 199.022 19.5923C199.488 19.1142 200.084 18.8096 200.723 18.7231L201.523 13.8789H201.091C199.3 13.8942 197.572 14.5989 196.221 15.8656C194.87 17.1323 193.984 18.8776 193.723 20.7863C193.462 22.695 193.843 24.6412 194.798 26.2735C195.753 27.9059 197.219 29.1167 198.93 29.6873L199.73 24.8259Z" fill="#08AC9F"/>
<path fill-rule="evenodd" clip-rule="evenodd" d="M183.546 14.0172H186.204C187.548 14.0172 188.205 14.5861 187.964 16.0514L187.676 17.7754C188.162 16.6701 188.911 15.7237 189.848 15.033C190.784 14.3423 191.875 13.9323 193.007 13.8448C193.193 13.8294 193.381 13.8294 193.567 13.8448L192.719 19.0166C192.393 18.9426 192.06 18.9079 191.726 18.9131C190.844 18.8842 189.972 19.1309 189.216 19.6233C188.461 20.1158 187.854 20.833 187.468 21.6887C187.179 22.3752 186.974 23.0997 186.86 23.8436L185.899 29.7911H180.921L183.546 14.0172Z" fill="#323E48"/>
<defs>
<clipPath id="clip0_15_4163">
<rect width="64.0316" height="44.8221" fill="white" transform="translate(89.6759 0.484131)"/>
</clipPath>
</defs>
</svg>
