<svg width="51" height="51" viewBox="0 0 51 51" fill="none" xmlns="http://www.w3.org/2000/svg">
<g clip-path="url(#clip0_30_129)">
<path fill-rule="evenodd" clip-rule="evenodd" d="M38.4034 4.68777C40.061 4.68777 41.6507 5.34626 42.8228 6.51836C43.9949 7.69046 44.6534 9.28017 44.6534 10.9378V38.0211C44.6534 39.6787 43.9949 41.2684 42.8228 42.4405C41.6507 43.6126 40.061 44.2711 38.4034 44.2711H32.1534V31.7711C32.1534 30.1135 31.4949 28.5238 30.3228 27.3517C29.1507 26.1796 27.561 25.5211 25.9034 25.5211H23.8201C22.1625 25.5211 20.5728 26.1796 19.4007 27.3517C18.2285 28.5238 17.5701 30.1135 17.5701 31.7711V44.2711H11.3201C9.66247 44.2711 8.07275 43.6126 6.90065 42.4405C5.72855 41.2684 5.07007 39.6787 5.07007 38.0211V10.9378C5.07007 9.28017 5.72855 7.69046 6.90065 6.51836C8.07275 5.34626 9.66247 4.68777 11.3201 4.68777H38.4034ZM25.9034 29.6878C26.4137 29.6878 26.9062 29.8752 27.2875 30.2143C27.6688 30.5533 27.9125 31.0206 27.9722 31.5274L27.9867 31.7711V44.2711H21.7367V31.7711C21.7368 31.2608 21.9241 30.7683 22.2632 30.387C22.6023 30.0057 23.0695 29.7621 23.5763 29.7024L23.8201 29.6878H25.9034ZM38.4034 8.85444H11.3201C10.8098 8.85451 10.3173 9.04185 9.93596 9.38093C9.55464 9.72001 9.31102 10.1873 9.25132 10.694L9.23674 10.9378V13.0211C9.2348 14.0385 9.60516 15.0214 10.278 15.7845C10.9508 16.5477 11.8796 17.0383 12.8892 17.1638C13.8988 17.2894 14.9194 17.0412 15.7587 16.4662C16.5979 15.8911 17.1977 15.0288 17.4451 14.0419L17.5117 13.719C17.5879 13.264 17.8129 12.8472 18.1515 12.5339C18.4901 12.2206 18.9231 12.0285 19.3826 11.9878L19.6534 11.9794C20.1637 11.9795 20.6562 12.1669 21.0375 12.5059C21.4188 12.845 21.6625 13.3123 21.7222 13.819L21.7367 14.0628C21.7371 14.8653 22.0463 15.6369 22.6001 16.2177C23.1539 16.7986 23.91 17.1441 24.7116 17.1826C25.5132 17.2212 26.2989 16.9499 26.9059 16.4249C27.5129 15.8999 27.8947 15.1616 27.9722 14.3628L27.9867 14.0628C27.9868 13.5525 28.1741 13.06 28.5132 12.6787C28.8523 12.2973 29.3195 12.0537 29.8263 11.994L30.1076 11.9794C30.5677 11.9688 31.0183 12.1109 31.3892 12.3834C31.76 12.6558 32.0302 13.0435 32.1576 13.4857L32.2117 13.719C32.3807 14.7238 32.9119 15.6318 33.705 16.2714C34.4981 16.9111 35.4981 17.2379 36.5159 17.1902C37.5336 17.1425 38.4986 16.7235 39.2284 16.0125C39.9582 15.3015 40.4021 14.3477 40.4763 13.3315L40.4867 13.0211V10.9378C40.4867 10.4275 40.2993 9.93499 39.9602 9.55367C39.6212 9.17234 39.1539 8.92873 38.6472 8.86902L38.4034 8.85444Z" fill="#9F9F9F"/>
</g>
<defs>
<clipPath id="clip0_30_129">
<rect width="50" height="50" fill="white" transform="translate(0.90332 0.521088)"/>
</clipPath>
</defs>
</svg>
