<svg width="40" height="39" viewBox="0 0 40 39" fill="none" xmlns="http://www.w3.org/2000/svg">
<path d="M10.4071 23.1096C9.74404 23.1096 9.20651 23.6471 9.20651 24.3102C9.20651 24.9733 9.74404 25.5108 10.4071 25.5108V23.1096ZM16.0099 25.5108C16.6729 25.5108 17.2105 24.9733 17.2105 24.3102C17.2105 23.6471 16.6729 23.1096 16.0099 23.1096V25.5108ZM8.80632 11.1037H31.2174V8.70248H8.80632V11.1037ZM33.2184 13.1047V25.911H35.6196V13.1047H33.2184ZM31.2174 27.912H8.80632V30.3132H31.2174V27.912ZM6.80533 25.911V13.1047H4.40414V25.911H6.80533ZM8.80632 27.912C7.7012 27.912 6.80533 27.0161 6.80533 25.911H4.40414C4.40414 28.3422 6.37506 30.3132 8.80632 30.3132V27.912ZM33.2184 25.911C33.2184 27.0161 32.3225 27.912 31.2174 27.912V30.3132C33.6486 30.3132 35.6196 28.3422 35.6196 25.911H33.2184ZM31.2174 11.1037C32.3225 11.1037 33.2184 11.9995 33.2184 13.1047H35.6196C35.6196 10.6734 33.6486 8.70248 31.2174 8.70248V11.1037ZM8.80632 8.70248C6.37506 8.70248 4.40414 10.6734 4.40414 13.1047H6.80533C6.80533 11.9995 7.7012 11.1037 8.80632 11.1037V8.70248ZM5.60474 17.5068H34.419V15.1056H5.60474V17.5068ZM10.4071 25.5108H16.0099V23.1096H10.4071V25.5108Z" fill="#030802"/>
</svg>
