<svg width="28" height="33" viewBox="0 0 28 33" fill="none" xmlns="http://www.w3.org/2000/svg">
<path fill-rule="evenodd" clip-rule="evenodd" d="M9.5 6.52112V3.52112H18.5V6.52112H9.5ZM6.5 6.52112V2.52112C6.5 1.99069 6.71071 1.48198 7.08579 1.1069C7.46086 0.731832 7.96957 0.521118 8.5 0.521118L19.5 0.521118C20.0304 0.521118 20.5391 0.731832 20.9142 1.1069C21.2893 1.48198 21.5 1.99069 21.5 2.52112V6.52112H26.5C26.8978 6.52112 27.2794 6.67915 27.5607 6.96046C27.842 7.24176 28 7.62329 28 8.02112C28 8.41894 27.842 8.80047 27.5607 9.08178C27.2794 9.36308 26.8978 9.52112 26.5 9.52112H25.77L24.284 28.8271C24.2069 29.832 23.7533 30.7708 23.0139 31.4556C22.2745 32.1405 21.3038 32.521 20.296 32.5211H7.704C6.69615 32.521 5.72548 32.1405 4.98609 31.4556C4.2467 30.7708 3.7931 29.832 3.716 28.8271L2.23 9.52112H1.5C1.10218 9.52112 0.720644 9.36308 0.43934 9.08178C0.158035 8.80047 0 8.41894 0 8.02112C0 7.62329 0.158035 7.24176 0.43934 6.96046C0.720644 6.67915 1.10218 6.52112 1.5 6.52112H6.5ZM5.24 9.52112H22.76L21.292 28.5971C21.2729 28.8483 21.1597 29.0829 20.975 29.2542C20.7904 29.4255 20.5479 29.5208 20.296 29.5211H7.704C7.45213 29.5208 7.20964 29.4255 7.025 29.2542C6.84035 29.0829 6.72714 28.8483 6.708 28.5971L5.24 9.52112Z" fill="#FF4747"/>
</svg>
