<svg width="336" height="336" viewBox="0 0 336 336" fill="none" xmlns="http://www.w3.org/2000/svg">
<path d="M167.932 335.951C75.3609 335.951 0.0537109 260.639 0.0537109 168.068C0.0537109 75.4968 75.3609 0.189697 167.932 0.189697C260.503 0.189697 335.81 75.4968 335.81 168.068C335.81 260.639 260.503 335.951 167.932 335.951ZM167.932 17.4389C84.87 17.4389 17.3029 85.006 17.3029 168.068C17.3029 251.134 84.87 318.697 167.932 318.697C250.994 318.697 318.561 251.134 318.561 168.068C318.561 85.006 250.994 17.4389 167.932 17.4389Z" fill="#B607A4" fill-opacity="0.07"/>
<path d="M167.932 301.147C94.5582 301.147 34.8573 241.446 34.8573 168.068C34.8573 94.6944 94.5582 34.9934 167.932 34.9934C241.31 34.9934 301.006 94.6944 301.006 168.068C301.006 241.446 241.31 301.147 167.932 301.147ZM167.932 52.2426C104.067 52.2426 52.1065 104.203 52.1065 168.068C52.1065 231.937 104.067 283.893 167.932 283.893C231.801 283.893 283.757 231.937 283.757 168.068C283.757 104.203 231.801 52.2426 167.932 52.2426Z" fill="#B607A4" fill-opacity="0.07"/>
<path d="M167.932 266.062C113.892 266.062 69.9374 222.098 69.9374 168.068C69.9374 114.042 113.906 70.0734 167.932 70.0734C221.962 70.0734 265.926 114.042 265.926 168.068C265.926 222.098 221.972 266.062 167.932 266.062ZM167.932 87.3226C123.415 87.3226 87.1866 123.551 87.1866 168.068C87.1866 212.589 123.415 248.813 167.932 248.813C212.453 248.813 248.677 212.589 248.677 168.068C248.677 123.551 212.453 87.3226 167.932 87.3226Z" fill="#B607A4" fill-opacity="0.07"/>
<path d="M167.602 232.339C132.343 232.339 103.665 203.661 103.665 168.402C103.665 133.143 132.343 104.465 167.602 104.465C202.862 104.465 231.539 133.143 231.539 168.402C231.539 203.661 202.847 232.339 167.602 232.339ZM167.602 121.714C141.862 121.714 120.914 142.662 120.914 168.402C120.914 194.138 141.862 215.085 167.602 215.085C193.338 215.085 214.285 194.138 214.285 168.402C214.285 142.662 193.338 121.714 167.602 121.714Z" fill="#B607A4" fill-opacity="0.07"/>
<path d="M167.602 197.53C151.535 197.53 138.469 184.464 138.469 168.402C138.469 152.335 151.535 139.269 167.602 139.269C183.664 139.269 196.735 152.335 196.735 168.402C196.735 184.464 183.664 197.53 167.602 197.53ZM167.602 156.533C161.044 156.533 155.718 161.859 155.718 168.412C155.718 174.969 161.044 180.296 167.602 180.296C174.155 180.296 179.481 174.969 179.481 168.412C179.481 161.859 174.14 156.533 167.602 156.533Z" fill="#B607A4" fill-opacity="0.07"/>
</svg>
