<svg width="103" height="120" viewBox="0 0 103 120" fill="none" xmlns="http://www.w3.org/2000/svg">
<g clip-path="url(#clip0_154_7893)">
<path d="M86.792 9.34051C81.2553 3.02978 71.2468 0.324219 58.4429 0.324219H21.2827C20.0158 0.324023 18.7904 0.775893 17.827 1.59854C16.8635 2.4212 16.2252 3.56064 16.0269 4.8119L0.554068 102.944C0.246519 104.88 1.74493 106.632 3.70625 106.632H26.6477L32.4093 70.0871L32.2305 71.2315C32.641 68.6483 34.8502 66.743 37.4664 66.743H48.3681C69.7845 66.743 86.5539 58.0442 91.4525 32.8804C91.5979 32.1361 91.7239 31.4118 91.8327 30.7041C91.2145 30.3767 91.2145 30.3767 91.8327 30.7041C93.2914 21.4033 91.8228 15.0723 86.792 9.34051Z" fill="#08AC9F"/>
<path d="M41.1876 27.3536C41.8146 27.0545 42.5007 26.8997 43.1954 26.9006H72.3284C75.7782 26.9006 78.9959 27.1251 81.9363 27.5984C82.7591 27.7297 83.5776 27.8863 84.3908 28.0681C85.5432 28.3224 86.6823 28.6337 87.804 29.0006C89.2496 29.4834 90.5958 30.0457 91.8331 30.7041C93.2914 21.3997 91.8228 15.0723 86.792 9.34051C81.2521 3.02978 71.2468 0.324219 58.4429 0.324219H21.2795C18.6629 0.324219 16.437 2.22912 16.0269 4.8119L0.55407 102.941C0.246521 104.879 1.74493 106.629 3.70308 106.629H26.6477L38.6012 30.8265C38.7189 30.0814 39.0157 29.3761 39.4662 28.7712C39.9167 28.1662 40.5075 27.6798 41.1876 27.3536Z" fill="#08AC9F"/>
<path d="M91.4525 32.8804C86.5539 58.0407 69.7849 66.743 48.3681 66.743H37.4632C34.847 66.743 32.6374 68.6483 32.2309 71.2315L25.0631 116.671C24.7952 118.364 26.1049 119.899 27.8183 119.899H47.1574C48.2652 119.898 49.3365 119.503 50.1787 118.783C51.021 118.064 51.5788 117.067 51.7519 115.973L51.9403 114.987L55.5852 91.887L55.82 90.6103C55.9931 89.5162 56.5509 88.5197 57.393 87.8001C58.2352 87.0805 59.3064 86.6849 60.4142 86.6845H63.3085C82.0424 86.6845 96.7114 79.0736 100.998 57.062C102.787 47.8633 101.861 40.1833 97.1282 34.7889C95.6926 33.155 93.9097 31.8056 91.8327 30.7041C91.7203 31.4154 91.5983 32.1362 91.4525 32.8804Z" fill="#08AC9F"/>
<path d="M86.7061 28.66C85.9423 28.437 85.1713 28.2395 84.3943 28.068C83.5808 27.8891 82.7623 27.7336 81.9399 27.6015C78.9963 27.1251 75.7809 26.9002 72.3279 26.9002H43.1985C42.5034 26.899 41.817 27.0551 41.1907 27.3567C40.5097 27.6817 39.9182 28.1678 39.4675 28.7729C39.0167 29.3781 38.7203 30.084 38.604 30.8296L32.4125 70.087L32.2336 71.2314C32.6409 68.6482 34.8502 66.7429 37.4668 66.7429H48.3717C69.7881 66.7429 86.5571 58.0441 91.4556 32.8803C91.6015 32.136 91.7238 31.4149 91.8363 30.704C90.596 30.0497 89.253 29.4829 87.8072 29.0037C87.4423 28.8828 87.0754 28.7682 86.7065 28.66" fill="#044D58"/>
</g>
<defs>
<clipPath id="clip0_154_7893">
<rect width="101.722" height="120" fill="white" transform="translate(0.5)"/>
</clipPath>
</defs>
</svg>
