<svg width="50" height="51" viewBox="0 0 50 51" fill="none" xmlns="http://www.w3.org/2000/svg">
<g clip-path="url(#clip0_15_3061)">
<path fill-rule="evenodd" clip-rule="evenodd" d="M37.5001 4.66675C39.1577 4.66675 40.7474 5.32523 41.9195 6.49733C43.0916 7.66943 43.7501 9.25915 43.7501 10.9167V38.0001C43.7501 39.6577 43.0916 41.2474 41.9195 42.4195C40.7474 43.5916 39.1577 44.2501 37.5001 44.2501H31.2501V31.7501C31.2501 30.0925 30.5916 28.5028 29.4195 27.3307C28.2474 26.1586 26.6577 25.5001 25.0001 25.5001H22.9167C21.2591 25.5001 19.6694 26.1586 18.4973 27.3307C17.3252 28.5028 16.6667 30.0925 16.6667 31.7501V44.2501H10.4167C8.75915 44.2501 7.16943 43.5916 5.99733 42.4195C4.82523 41.2474 4.16675 39.6577 4.16675 38.0001V10.9167C4.16675 9.25915 4.82523 7.66943 5.99733 6.49733C7.16943 5.32523 8.75915 4.66675 10.4167 4.66675H37.5001ZM25.0001 29.6667C25.5104 29.6668 26.0029 29.8542 26.3842 30.1932C26.7655 30.5323 27.0091 30.9996 27.0688 31.5063L27.0834 31.7501V44.2501H20.8334V31.7501C20.8335 31.2398 21.0208 30.7473 21.3599 30.366C21.699 29.9847 22.1662 29.741 22.673 29.6813L22.9167 29.6667H25.0001ZM37.5001 8.83342H10.4167C9.90647 8.83348 9.41396 9.02082 9.03264 9.3599C8.65132 9.69899 8.4077 10.1662 8.348 10.673L8.33342 10.9167V13.0001C8.33148 14.0175 8.70184 15.0004 9.37465 15.7635C10.0475 16.5267 10.9762 17.0173 11.9858 17.1428C12.9954 17.2684 14.0161 17.0202 14.8553 16.4451C15.6946 15.87 16.2944 15.0078 16.5417 14.0209L16.6084 13.698C16.6846 13.243 16.9096 12.8262 17.2482 12.5129C17.5867 12.1996 18.0197 12.0075 18.4792 11.9667L18.7501 11.9584C19.2604 11.9585 19.7529 12.1458 20.1342 12.4849C20.5155 12.824 20.7591 13.2912 20.8188 13.798L20.8334 14.0417C20.8338 14.8443 21.143 15.6159 21.6968 16.1967C22.2506 16.7775 23.0066 17.123 23.8082 17.1616C24.6098 17.2002 25.3956 16.9289 26.0026 16.4039C26.6096 15.8789 26.9914 15.1405 27.0688 14.3417L27.0834 14.0417C27.0835 13.5315 27.2708 13.039 27.6099 12.6576C27.949 12.2763 28.4162 12.0327 28.923 11.973L29.2042 11.9584C29.6643 11.9478 30.115 12.0898 30.4858 12.3623C30.8567 12.6348 31.1269 13.0224 31.2542 13.4647L31.3084 13.698C31.4774 14.7028 32.0086 15.6108 32.8017 16.2504C33.5948 16.89 34.5948 17.2169 35.6125 17.1692C36.6303 17.1214 37.5953 16.7025 38.3251 15.9914C39.0548 15.2804 39.4988 14.3267 39.573 13.3105L39.5834 13.0001V10.9167C39.5834 10.4065 39.396 9.91396 39.0569 9.53264C38.7178 9.15132 38.2506 8.9077 37.7438 8.848L37.5001 8.83342Z" fill="#B607A4"/>
</g>
<defs>
<clipPath id="clip0_15_3061">
<rect width="50" height="50" fill="white" transform="translate(0 0.5)"/>
</clipPath>
</defs>
</svg>
