<svg width="701" height="1141" viewBox="0 0 701 1141" fill="none" xmlns="http://www.w3.org/2000/svg">
<mask id="mask0_15_4226" style="mask-type:luminance" maskUnits="userSpaceOnUse" x="-440" y="0" width="1141" height="1141">
<path d="M-440 0H701V1141H-440V0Z" fill="white"/>
</mask>
<g mask="url(#mask0_15_4226)">
<path d="M130.307 1141.19C-184.257 1141.19 -440.193 885.271 -440.193 570.693C-440.193 256.128 -184.257 0.192871 130.307 0.192871C444.872 0.192871 700.807 256.128 700.807 570.693C700.807 885.271 444.872 1141.19 130.307 1141.19ZM130.307 49.1652C-157.268 49.1652 -391.234 283.118 -391.234 570.693C-391.234 858.281 -157.268 1092.23 130.307 1092.23C417.896 1092.23 651.849 858.281 651.849 570.693C651.849 283.118 417.896 49.1652 130.307 49.1652Z" fill="#FD5600" fill-opacity="0.07"/>
</g>
<path d="M130.307 1047.2C-132.437 1047.2 -346.182 833.437 -346.182 570.693C-346.182 307.948 -132.437 94.2029 130.307 94.2029C393.052 94.2029 606.797 307.948 606.797 570.693C606.797 833.437 393.052 1047.2 130.307 1047.2ZM130.307 143.161C-105.447 143.161 -297.224 334.938 -297.224 570.693C-297.224 806.461 -105.447 998.224 130.307 998.224C366.062 998.224 557.839 806.461 557.839 570.693C557.839 334.938 366.062 143.161 130.307 143.161Z" fill="#FD5600" fill-opacity="0.07"/>
<path d="M130.307 948.412C-77.9489 948.412 -247.399 778.962 -247.399 570.693C-247.399 362.436 -77.9489 192.987 130.307 192.987C338.577 192.987 508.013 362.436 508.013 570.693C508.013 778.962 338.577 948.412 130.307 948.412ZM130.307 241.945C-50.9591 241.945 -198.44 389.426 -198.44 570.693C-198.44 751.973 -50.9591 899.44 130.307 899.44C311.587 899.44 459.055 751.973 459.055 570.693C459.055 389.426 311.587 241.945 130.307 241.945Z" fill="#FD5600" fill-opacity="0.07"/>
<path d="M130.307 848.831C-23.0752 848.831 -147.831 724.047 -147.831 570.692C-147.831 417.351 -23.0339 292.554 130.307 292.554C283.662 292.554 408.445 417.351 408.445 570.692C408.445 724.047 283.69 848.831 130.307 848.831ZM130.307 341.513C3.95587 341.513 -98.8722 444.341 -98.8722 570.692C-98.8722 697.058 3.95587 799.872 130.307 799.872C256.672 799.872 359.487 697.058 359.487 570.692C359.487 444.341 256.672 341.513 130.307 341.513Z" fill="#FD5600" fill-opacity="0.07"/>
<path d="M129.372 753.114C29.2953 753.114 -52.1006 671.719 -52.1006 571.642C-52.1006 471.565 29.2953 390.169 129.372 390.169C229.449 390.169 310.845 471.565 310.845 571.642C310.845 671.719 229.408 753.114 129.372 753.114ZM129.372 439.128C56.3126 439.128 -3.14202 498.582 -3.14202 571.642C-3.14202 644.687 56.3126 704.142 129.372 704.142C202.418 704.142 261.873 644.687 261.873 571.642C261.873 498.582 202.418 439.128 129.372 439.128Z" fill="#FD5600" fill-opacity="0.07"/>
<path d="M129.372 654.317C83.7695 654.317 46.6826 617.23 46.6826 571.642C46.6826 526.04 83.7695 488.953 129.372 488.953C174.96 488.953 212.06 526.04 212.06 571.642C212.06 617.23 174.96 654.317 129.372 654.317ZM129.372 537.952C110.759 537.952 95.6412 553.071 95.6412 571.669C95.6412 590.281 110.759 605.399 129.372 605.399C147.97 605.399 163.088 590.281 163.088 571.669C163.088 553.071 147.929 537.952 129.372 537.952Z" fill="#FD5600" fill-opacity="0.07"/>
</svg>
