<svg width="427" height="1141" viewBox="0 0 427 1141" fill="none" xmlns="http://www.w3.org/2000/svg">
<mask id="mask0_15_2967" style="mask-type:luminance" maskUnits="userSpaceOnUse" x="0" y="0" width="1141" height="1141">
<path d="M0 0H1141V1141H0V0Z" fill="white"/>
</mask>
<g mask="url(#mask0_15_2967)">
<path d="M570.307 1141.19C255.743 1141.19 -0.192871 885.271 -0.192871 570.693C-0.192871 256.128 255.743 0.192871 570.307 0.192871C884.872 0.192871 1140.81 256.128 1140.81 570.693C1140.81 885.271 884.872 1141.19 570.307 1141.19ZM570.307 49.1652C282.732 49.1652 48.7657 283.118 48.7657 570.693C48.7657 858.281 282.732 1092.23 570.307 1092.23C857.896 1092.23 1091.85 858.281 1091.85 570.693C1091.85 283.118 857.896 49.1652 570.307 49.1652Z" fill="#B607A4" fill-opacity="0.07"/>
</g>
</svg>
