<svg width="78" height="68" viewBox="0 0 78 68" fill="none" xmlns="http://www.w3.org/2000/svg">
<path d="M0.234375 3.49927C0.234375 4.87521 1.37669 6.05192 2.7211 6.05192H14.074L19.4488 42.9357C20.1554 47.7056 22.6736 50.6954 27.5453 50.6954H66.7481C68.0567 50.6954 69.199 49.6204 69.199 48.1771C69.199 46.7324 68.0567 45.6574 66.7481 45.6574H28.1158C26.2009 45.6574 25.0256 44.313 24.7232 42.2649L24.1857 38.7376H66.814C71.7187 38.7376 74.2383 35.7134 74.9435 30.9105L77.6309 13.1394C77.7022 12.7174 77.7472 12.2914 77.7656 11.8638C77.7656 10.2514 76.5559 9.14205 74.7085 9.14205H19.8859L19.2137 4.87664C18.8783 2.28959 17.9381 0.978149 14.5126 0.978149H2.71966C1.37669 0.978149 0.234375 2.15486 0.234375 3.49927ZM24.7246 61.5796C24.7246 64.6368 27.144 67.0217 30.1997 67.0217C30.916 67.0277 31.6264 66.8909 32.2893 66.6195C32.9523 66.3481 33.5546 65.9475 34.0611 65.441C34.5676 64.9344 34.9683 64.3321 35.2397 63.6692C35.511 63.0063 35.6478 62.2959 35.6418 61.5796C35.6449 60.8641 35.5062 60.1551 35.2338 59.4934C34.9614 58.8318 34.5606 58.2306 34.0547 57.7247C33.5487 57.2187 32.9476 56.818 32.2859 56.5456C31.6243 56.2731 30.9152 56.1345 30.1997 56.1375C27.144 56.1375 24.7246 58.5568 24.7246 61.5796ZM56.1333 61.5796C56.1333 64.6368 58.5856 67.0217 61.6084 67.0217C64.6655 67.0217 67.0835 64.6368 67.0835 61.5796C67.0835 58.5554 64.6655 56.1375 61.6084 56.1375C58.5856 56.1375 56.1333 58.5568 56.1333 61.5796Z" fill="#F8F8F8"/>
</svg>
