<svg width="28" height="28" viewBox="0 0 28 28" fill="none" xmlns="http://www.w3.org/2000/svg">
<path fill-rule="evenodd" clip-rule="evenodd" d="M12.7692 1.35422C13.0505 1.07301 13.432 0.915039 13.8297 0.915039C14.2275 0.915039 14.6089 1.07301 14.8902 1.35422L23.8902 10.3542L26.8902 13.3542C27.1634 13.6371 27.3146 14.016 27.3112 14.4093C27.3078 14.8026 27.1501 15.1788 26.8719 15.4569C26.5938 15.7351 26.2176 15.8928 25.8243 15.8962C25.431 15.8996 25.0521 15.7485 24.7692 15.4752L24.3297 15.0357V24.9147C24.3297 25.7104 24.0136 26.4734 23.451 27.036C22.8884 27.5986 22.1254 27.9147 21.3297 27.9147H16.8297C16.4319 27.9147 16.0504 27.7567 15.7691 27.4754C15.4877 27.1941 15.3297 26.8125 15.3297 26.4147V21.9147H12.3297V26.4147C12.3297 26.8125 12.1717 27.1941 11.8904 27.4754C11.6091 27.7567 11.2275 27.9147 10.8297 27.9147H6.32971C5.53406 27.9147 4.771 27.5986 4.20839 27.036C3.64578 26.4734 3.32971 25.7104 3.32971 24.9147V15.0357L2.89021 15.4752C2.60731 15.7485 2.22841 15.8996 1.83511 15.8962C1.44182 15.8928 1.0656 15.7351 0.787484 15.4569C0.509372 15.1788 0.351619 14.8026 0.348201 14.4093C0.344784 14.016 0.495975 13.6371 0.769212 13.3542L3.76921 10.3542L12.7692 1.35422Z" fill="#B607A4"/>
</svg>
