<svg width="121" height="120" viewBox="0 0 121 120" fill="none" xmlns="http://www.w3.org/2000/svg">
<path d="M60.5 120C93.6371 120 120.5 93.1371 120.5 60C120.5 26.8629 93.6371 0 60.5 0C27.3629 0 0.5 26.8629 0.5 60C0.5 93.1371 27.3629 120 60.5 120Z" fill="#08AC9F"/>
<path fill-rule="evenodd" clip-rule="evenodd" d="M67.7075 65.1863V65.1788C67.295 65.2088 65.1688 65.3363 60.425 65.3363C56.6375 65.3363 53.9713 65.2238 53.0338 65.1788V65.19C38.4537 64.5488 27.5712 62.01 27.5712 58.9725C27.5712 55.9388 38.4537 53.4 53.0338 52.7475V62.6625C53.9862 62.73 56.7163 62.8913 60.4888 62.8913C65.015 62.8913 67.2838 62.7038 67.7075 62.6663V52.755C82.2575 53.4038 93.1138 55.9425 93.1138 58.9725C93.1138 62.01 82.2575 64.5413 67.7075 65.1863ZM67.7075 51.7238V42.8513H88.01V29.3213H32.7313V42.8513H53.0338V51.72C36.5337 52.4775 24.125 55.7475 24.125 59.6625C24.125 63.5775 36.5337 66.8438 53.0338 67.605V96.0375H67.7075V67.5975C84.1813 66.84 96.56 63.5738 96.56 59.6625C96.56 55.7513 84.1813 52.485 67.7075 51.7238Z" fill="#F8F8F8"/>
</svg>
