<svg width="121" height="120" viewBox="0 0 121 120" fill="none" xmlns="http://www.w3.org/2000/svg">
<path d="M25.1601 21.4286C20.8976 21.4286 16.8098 23.1218 13.7958 26.1358C10.7819 29.1498 9.08862 33.2376 9.08862 37.5V40.7143H111.929V37.5C111.929 33.2376 110.235 29.1498 107.221 26.1358C104.207 23.1218 100.12 21.4286 95.8572 21.4286H25.1601ZM9.08862 82.5V47.1429H111.929V82.5C111.929 86.7624 110.235 90.8503 107.221 93.8642C104.207 96.8782 100.12 98.5714 95.8572 98.5714H25.1643C20.9019 98.5714 16.8141 96.8782 13.8001 93.8642C10.7861 90.8503 9.09291 86.7624 9.09291 82.5M78.7143 70.7143C77.8619 70.7143 77.0443 71.053 76.4415 71.6557C75.8387 72.2585 75.5001 73.0761 75.5001 73.9286C75.5001 74.7811 75.8387 75.5986 76.4415 76.2014C77.0443 76.8042 77.8619 77.1429 78.7143 77.1429H93.7143C94.5668 77.1429 95.3844 76.8042 95.9872 76.2014C96.59 75.5986 96.9286 74.7811 96.9286 73.9286C96.9286 73.0761 96.59 72.2585 95.9872 71.6557C95.3844 71.053 94.5668 70.7143 93.7143 70.7143H78.7143Z" fill="#08AC9F"/>
</svg>
