<svg width="166" height="83" viewBox="0 0 166 83" fill="none" xmlns="http://www.w3.org/2000/svg">
<mask id="mask0_15_3003" style="mask-type:luminance" maskUnits="userSpaceOnUse" x="0" y="18" width="80" height="32">
<path d="M0 18.0884H79.4136V49.8101H0V18.0884Z" fill="white"/>
</mask>
<g mask="url(#mask0_15_3003)">
<path d="M0.191895 18.2126L16.2627 49.81L7.03251 24.6393C7.03251 24.6393 57.2004 28.8668 79.0811 49.81C79.0811 49.81 71.0477 25.2713 0.191895 18.2126Z" fill="#044D58"/>
</g>
<path d="M25.9917 6.62573V18.2129C61.982 22.8417 81.8374 43.484 81.8374 43.484C67.3276 17.8136 25.9917 6.62573 25.9917 6.62573Z" fill="#044D58"/>
<mask id="mask1_15_3003" style="mask-type:luminance" maskUnits="userSpaceOnUse" x="47" y="0" width="35" height="38">
<path d="M47.1357 0.5H81.9753V37.607H47.1357V0.5Z" fill="white"/>
</mask>
<g mask="url(#mask1_15_3003)">
<path d="M47.1416 0.5V10.7549C70.017 20.0106 81.805 37.3241 81.805 37.3241C73.7355 13.3853 47.1416 0.5 47.1416 0.5Z" fill="#044D58"/>
</g>
<mask id="mask2_15_3003" style="mask-type:luminance" maskUnits="userSpaceOnUse" x="86" y="18" width="80" height="32">
<path d="M86.5864 18.0884H166V49.8101H86.5864V18.0884Z" fill="white"/>
</mask>
<g mask="url(#mask2_15_3003)">
<path d="M165.808 18.2126C94.9519 25.2713 86.9185 49.81 86.9185 49.81C108.799 28.8668 158.967 24.6393 158.967 24.6393L149.737 49.81L165.808 18.2126Z" fill="#044D58"/>
</g>
<path d="M140.043 6.62573C140.043 6.62573 98.7046 17.7795 84.1948 43.4498C84.1948 43.4498 104.05 22.8076 140.043 18.1788V6.62573Z" fill="#044D58"/>
<mask id="mask3_15_3003" style="mask-type:luminance" maskUnits="userSpaceOnUse" x="84" y="0" width="35" height="38">
<path d="M84.0249 0.5H118.864V37.607H84.0249V0.5Z" fill="white"/>
</mask>
<g mask="url(#mask3_15_3003)">
<path d="M118.858 10.7549V0.5C118.858 0.5 92.2643 13.3853 84.1948 37.3241C84.1948 37.3241 95.9828 20.0106 118.858 10.7549Z" fill="#044D58"/>
</g>
<path d="M34.8638 70.1644V74.5304H32.2541C30.3968 74.5304 28.9478 74.077 27.9071 73.1661C26.8664 72.2511 26.3461 70.7624 26.3461 68.6957V62.0103H24.3047V57.7406H26.3461V53.6475H31.4775V57.7406H34.8398V62.0103H31.4775V68.7519C31.4775 69.2555 31.5976 69.6167 31.8378 69.8354C32.0779 70.0561 32.4782 70.1644 33.0386 70.1644H34.8638Z" fill="#044D58"/>
<path d="M48.0078 57.5641C49.9291 57.5641 51.4682 58.2021 52.627 59.4742C53.7897 60.7483 54.3721 62.4979 54.3721 64.723V74.5305H49.2727V65.4133C49.2727 64.2897 48.9805 63.4189 48.4001 62.7969C47.8177 62.1769 47.0392 61.8659 46.0625 61.8659C45.0799 61.8659 44.2973 62.1769 43.7169 62.7969C43.1406 63.4189 42.8524 64.2897 42.8524 65.4133V74.5305H37.7129V52.2671H42.8524V59.9959C43.3687 59.2575 44.0772 58.6696 44.9738 58.2302C45.8744 57.7868 46.8871 57.5641 48.0078 57.5641Z" fill="#044D58"/>
<path d="M60.5246 55.9991C59.622 55.9991 58.8855 55.7342 58.3151 55.2045C57.7427 54.6708 57.4585 54.0127 57.4585 53.2302C57.4585 52.4276 57.7427 51.7615 58.3151 51.2318C58.8855 50.6981 59.622 50.4292 60.5246 50.4292C61.4052 50.4292 62.1276 50.6981 62.694 51.2318C63.2644 51.7615 63.5506 52.4276 63.5506 53.2302C63.5506 54.0127 63.2644 54.6708 62.694 55.2045C62.1276 55.7342 61.4052 55.9991 60.5246 55.9991ZM63.0783 57.7407V74.5305H57.9388V57.7407H63.0783Z" fill="#044D58"/>
<path d="M76.9979 57.564C78.9552 57.564 80.5203 58.202 81.6891 59.4741C82.8619 60.7482 83.4503 62.4978 83.4503 64.7229V74.5304H78.3508V65.4131C78.3508 64.2895 78.0586 63.4187 77.4782 62.7967C76.8958 62.1768 76.1173 61.8658 75.1406 61.8658C74.158 61.8658 73.3755 62.1768 72.7951 62.7967C72.2187 63.4187 71.9305 64.2895 71.9305 65.4131V74.5304H66.791V57.7405H71.9305V59.9637C72.4468 59.2253 73.1473 58.6434 74.0279 58.2141C74.9085 57.7807 75.8972 57.564 76.9979 57.564Z" fill="#044D58"/>
<path d="M97.2555 74.5305L92.1561 67.4919V74.5305H87.0166V52.2671H92.1561V64.5706L97.2235 57.7406H103.556L96.5911 66.1677L103.62 74.5305H97.2555Z" fill="#044D58"/>
<path d="M108.148 55.9991C107.245 55.9991 106.509 55.7342 105.938 55.2045C105.366 54.6708 105.082 54.0127 105.082 53.2302C105.082 52.4276 105.366 51.7615 105.938 51.2318C106.509 50.6981 107.245 50.4292 108.148 50.4292C109.028 50.4292 109.751 50.6981 110.317 51.2318C110.887 51.7615 111.174 52.4276 111.174 53.2302C111.174 54.0127 110.887 54.6708 110.317 55.2045C109.751 55.7342 109.028 55.9991 108.148 55.9991ZM110.701 57.7407V74.5305H105.562V57.7407H110.701Z" fill="#044D58"/>
<path d="M122.82 62.0104H120.058V74.5305H114.927V62.0104H113.069V57.7407H114.927V57.2591C114.927 55.1945 115.515 53.6275 116.696 52.556C117.881 51.4806 119.612 50.9429 121.891 50.9429C122.27 50.9429 122.55 50.9549 122.732 50.975V55.333C121.749 55.2748 121.059 55.4172 120.658 55.7583C120.258 56.0954 120.058 56.7054 120.058 57.5882V57.7407H122.82V62.0104Z" fill="#044D58"/>
<path d="M142.324 57.7405L131.821 82.4999H126.298L130.14 73.9605L123.328 57.7405H129.06L132.934 68.2382L136.777 57.7405H142.324Z" fill="#044D58"/>
</svg>
