<svg width="446" height="220" viewBox="0 0 446 220" fill="none" xmlns="http://www.w3.org/2000/svg">
<mask id="mask0_15_2842" style="mask-type:luminance" maskUnits="userSpaceOnUse" x="0" y="47" width="214" height="86">
<path d="M0 47.1882H213.061V132.295H0V47.1882Z" fill="white"/>
</mask>
<g mask="url(#mask0_15_2842)">
<path d="M0.515625 47.5229L43.6325 132.296L18.8685 64.7651C18.8685 64.7651 153.465 76.1073 212.17 132.296C212.17 132.296 190.617 66.4608 0.515625 47.5229Z" fill="#F8F8F8"/>
</g>
<path d="M69.7334 16.4346V47.5221C166.293 59.9409 219.563 115.322 219.563 115.322C180.635 46.4508 69.7334 16.4346 69.7334 16.4346Z" fill="#F8F8F8"/>
<mask id="mask1_15_2842" style="mask-type:luminance" maskUnits="userSpaceOnUse" x="126" y="0" width="94" height="100">
<path d="M126.462 0H219.934V99.5554H126.462V0Z" fill="white"/>
</mask>
<g mask="url(#mask1_15_2842)">
<path d="M126.478 0V27.5131C187.851 52.3455 219.477 98.7964 219.477 98.7964C197.828 34.5704 126.478 0 126.478 0Z" fill="#F8F8F8"/>
</g>
<mask id="mask2_15_2842" style="mask-type:luminance" maskUnits="userSpaceOnUse" x="232" y="47" width="214" height="86">
<path d="M232.305 47.1882H445.366V132.295H232.305V47.1882Z" fill="white"/>
</mask>
<g mask="url(#mask2_15_2842)">
<path d="M444.851 47.5229C254.75 66.4608 233.197 132.296 233.197 132.296C291.901 76.1073 426.498 64.7651 426.498 64.7651L401.734 132.296L444.851 47.5229Z" fill="#F8F8F8"/>
</g>
<path d="M375.724 16.4346C375.724 16.4346 264.817 46.3593 225.889 115.231C225.889 115.231 279.159 59.8494 375.724 47.4306V16.4346Z" fill="#F8F8F8"/>
<mask id="mask3_15_2842" style="mask-type:luminance" maskUnits="userSpaceOnUse" x="225" y="0" width="94" height="100">
<path d="M225.432 0H318.904V99.5554H225.432V0Z" fill="white"/>
</mask>
<g mask="url(#mask3_15_2842)">
<path d="M318.888 27.5131V0C318.888 0 247.538 34.5704 225.889 98.7964C225.889 98.7964 257.515 52.3455 318.888 27.5131Z" fill="#F8F8F8"/>
</g>
<path d="M93.5379 186.905V198.619H86.5361C81.5532 198.619 77.6657 197.402 74.8736 194.958C72.0814 192.503 70.6854 188.509 70.6854 182.964V165.028H65.2085V153.573H70.6854V142.591H84.4527V153.573H93.4734V165.028H84.4527V183.115C84.4527 184.466 84.7749 185.435 85.4192 186.022C86.0635 186.614 87.1374 186.905 88.6409 186.905H93.5379Z" fill="#F8F8F8"/>
<path d="M128.802 153.099C133.957 153.099 138.086 154.811 141.195 158.224C144.315 161.642 145.877 166.336 145.877 172.306V198.619H132.196V174.158C132.196 171.143 131.412 168.807 129.855 167.138C128.292 165.475 126.203 164.64 123.583 164.64C120.947 164.64 118.847 165.475 117.29 167.138C115.744 168.807 114.97 171.143 114.97 174.158V198.619H101.182V138.887H114.97V159.623C116.356 157.642 118.257 156.065 120.662 154.886C123.078 153.696 125.795 153.099 128.802 153.099Z" fill="#F8F8F8"/>
<path d="M162.382 148.9C159.961 148.9 157.985 148.189 156.454 146.768C154.919 145.336 154.156 143.57 154.156 141.471C154.156 139.318 154.919 137.53 156.454 136.109C157.985 134.677 159.961 133.956 162.382 133.956C164.745 133.956 166.683 134.677 168.203 136.109C169.733 137.53 170.501 139.318 170.501 141.471C170.501 143.57 169.733 145.336 168.203 146.768C166.683 148.189 164.745 148.9 162.382 148.9ZM169.234 153.572V198.618H155.445V153.572H169.234Z" fill="#F8F8F8"/>
<path d="M206.58 153.098C211.831 153.098 216.03 154.81 219.166 158.223C222.313 161.641 223.891 166.335 223.891 172.305V198.618H210.21V174.157C210.21 171.143 209.426 168.806 207.869 167.138C206.306 165.474 204.218 164.64 201.597 164.64C198.961 164.64 196.861 165.474 195.304 167.138C193.758 168.806 192.985 171.143 192.985 174.157V198.618H179.196V153.572H192.985V159.537C194.37 157.556 196.249 155.995 198.612 154.843C200.974 153.68 203.627 153.098 206.58 153.098Z" fill="#F8F8F8"/>
<path d="M260.929 198.619L247.248 179.735V198.619H233.459V138.887H247.248V171.897L260.843 153.573H277.832L259.147 176.182L278.004 198.619H260.929Z" fill="#F8F8F8"/>
<path d="M290.152 148.9C287.73 148.9 285.754 148.189 284.224 146.768C282.688 145.336 281.926 143.57 281.926 141.471C281.926 139.318 282.688 137.53 284.224 136.109C285.754 134.677 287.73 133.956 290.152 133.956C292.514 133.956 294.453 134.677 295.972 136.109C297.503 137.53 298.27 139.318 298.27 141.471C298.27 143.57 297.503 145.336 295.972 146.768C294.453 148.189 292.514 148.9 290.152 148.9ZM297.003 153.572V198.618H283.214V153.572H297.003Z" fill="#F8F8F8"/>
<path d="M329.517 165.028H322.107V198.618H308.339V165.028H303.356V153.572H308.339V152.281C308.339 146.741 309.918 142.537 313.086 139.663C316.265 136.777 320.909 135.334 327.025 135.334C328.04 135.334 328.792 135.367 329.28 135.421V147.113C326.644 146.957 324.791 147.339 323.718 148.254C322.644 149.158 322.107 150.795 322.107 153.163V153.572H329.517V165.028Z" fill="#F8F8F8"/>
<path d="M381.847 153.573L353.668 220H338.848L349.158 197.09L330.88 153.573H346.258L356.653 181.737L366.963 153.573H381.847Z" fill="#F8F8F8"/>
</svg>
